<svg width="200" height="200" viewBox="0 0 200 200" fill="none" xmlns="http://www.w3.org/2000/svg">
<rect width="200" height="200" fill="#C03D3D"/>
<path d="M99.5 24C126.77 24 148.877 46.1768 148.877 73.5332C148.877 88.8812 141.917 102.597 130.992 111.683C132.434 112.2 133.864 112.754 135.281 113.343C146.625 118.056 156.932 124.966 165.614 133.676C174.297 142.386 181.184 152.726 185.883 164.105C190.582 175.485 193 187.682 193 200H6C6 187.682 8.41837 175.485 13.1172 164.105C17.816 152.726 24.7035 142.386 33.3857 133.676C42.068 124.966 52.3749 118.056 63.7188 113.343C65.1362 112.754 66.5663 112.2 68.0078 111.683C57.0834 102.597 50.1241 88.881 50.124 73.5332C50.124 46.177 72.2304 24.0002 99.5 24Z" fill="#EF7979"/>
</svg>
