<svg width="200" height="200" viewBox="0 0 200 200" fill="none" xmlns="http://www.w3.org/2000/svg">
<g clip-path="url(#clip0_161_193)">
<rect width="200" height="200" fill="#7F004A"/>
<ellipse cx="76.2116" cy="52.0717" rx="76.2116" ry="52.0717" transform="matrix(0.849916 0.526918 -0.519071 0.854731 94.1406 -24.1501)" fill="#7F004A"/>
<path d="M124.799 67.619C159.068 88.8644 177.877 123.175 172.566 150.555C173.868 163.022 171.708 175.403 165.06 186.35C154.269 204.118 134.794 212.95 113.698 214.178C92.5508 215.409 68.7627 209.169 47.0207 195.69C25.2785 182.211 8.99714 163.609 0.504054 144.002C-7.96827 124.443 -8.99584 102.9 1.79448 85.1317C8.4458 74.1795 18.3971 66.6235 29.9934 62.1499C51.7492 44.9724 90.5361 46.3772 124.799 67.619ZM13.7402 104.968C11.5995 114.12 12.8351 124.83 17.7297 136.13C24.5117 151.787 38.0178 167.604 56.9494 179.341C75.8809 191.077 95.9546 196.079 112.841 195.096C125.025 194.387 135.033 190.65 142.138 184.58C119.944 192.499 89.4672 188.248 61.9157 171.167C34.36 154.083 16.8011 128.551 13.7402 104.968Z" fill="#970058"/>
<ellipse cx="76.2116" cy="52.0717" rx="76.2116" ry="52.0717" transform="matrix(0.849916 0.526918 -0.519071 0.854731 60.0244 27.461)" fill="#7F004A"/>
<path d="M158.916 16.0076C193.185 37.2532 211.993 71.5639 206.682 98.9443C207.983 111.411 205.823 123.792 199.175 134.739C188.384 152.507 168.91 161.339 147.814 162.567C126.667 163.797 102.878 157.557 81.1361 144.078C59.3941 130.599 43.1133 111.997 34.6203 92.3905C26.1479 72.8315 25.12 51.2891 35.9102 33.5212C42.5613 22.569 52.5123 15.0126 64.1083 10.5389C85.864 -6.63923 124.652 -5.23458 158.916 16.0076ZM47.8558 53.3542C45.7143 62.5065 46.9508 73.218 51.8459 84.5187C58.6279 100.175 72.1334 115.992 91.0648 127.729C109.996 139.466 130.071 144.467 146.958 143.485C159.142 142.775 169.149 139.039 176.254 132.968C154.06 140.888 123.584 136.636 96.0319 119.555C68.475 102.471 50.9156 76.938 47.8558 53.3542Z" fill="#970058"/>
<path d="M158.916 16.0076C193.185 37.2532 211.993 71.5639 206.682 98.9443C207.983 111.411 205.823 123.792 199.175 134.739C188.384 152.507 168.91 161.339 147.814 162.567C126.667 163.797 102.878 157.557 81.1361 144.078C59.3941 130.599 43.1133 111.997 34.6203 92.3905C26.1479 72.8315 25.12 51.2891 35.9102 33.5212C42.5613 22.569 52.5123 15.0126 64.1083 10.5389C85.864 -6.63923 124.652 -5.23458 158.916 16.0076ZM47.8558 53.3542C45.7143 62.5065 46.9508 73.218 51.8459 84.5187C58.6279 100.175 72.1334 115.992 91.0648 127.729C109.996 139.466 130.071 144.467 146.958 143.485C159.142 142.775 169.149 139.039 176.254 132.968C154.06 140.888 123.584 136.636 96.0319 119.555C68.475 102.471 50.9156 76.938 47.8558 53.3542Z" fill="#970058"/>
<ellipse cx="76.2116" cy="52.0717" rx="76.2116" ry="52.0717" transform="matrix(0.849916 0.526918 -0.519071 0.854731 94.1406 -24.1501)" fill="#7F004A"/>
<path d="M101.5 24C128.77 24 150.877 46.1768 150.877 73.5332C150.877 88.8812 143.917 102.597 132.992 111.683C134.434 112.2 135.864 112.754 137.281 113.343C148.625 118.056 158.932 124.966 167.614 133.676C176.297 142.386 183.184 152.726 187.883 164.105C192.582 175.485 195 187.682 195 200H8C8 187.682 10.4184 175.485 15.1172 164.105C19.816 152.726 26.7035 142.386 35.3857 133.676C44.068 124.966 54.3749 118.056 65.7188 113.343C67.1362 112.754 68.5663 112.2 70.0078 111.683C59.0834 102.597 52.1241 88.881 52.124 73.5332C52.124 46.177 74.2304 24.0002 101.5 24Z" fill="#FB40AD"/>
<path d="M54 120.72H150V24.72H54V120.72Z" fill="white"/>
</g>
<defs>
<clipPath id="clip0_161_193">
<rect width="200" height="200" fill="white"/>
</clipPath>
</defs>
</svg>
