<svg width="149" height="38" viewBox="0 0 149 38" fill="none" xmlns="http://www.w3.org/2000/svg">
<path d="M16.6587 25.5035C10.7511 24.0333 6.46315 19.9705 5.9618 15.7894C5.19872 14.0578 4.93541 12.179 5.38506 10.2984C6.11492 7.24622 8.50596 5.07729 11.4811 3.92597C14.4637 2.77186 18.1714 2.56895 21.9192 3.50157C25.6671 4.43423 28.8667 6.35602 30.9934 8.78162C33.1149 11.2012 34.2584 14.2496 33.5287 17.3019C33.0791 19.1822 31.9988 20.7272 30.5403 21.9058C28.2084 25.3821 22.5666 26.9737 16.6587 25.5035ZM8.76237 9.49755C11.5863 7.33283 16.1618 6.53284 20.9118 7.71485C25.6615 8.8968 29.3624 11.7558 30.8924 15.0036C30.7772 13.5893 30.1077 12.1065 28.8821 10.7086C27.1838 8.77163 24.5111 7.12221 21.2477 6.3101C17.9845 5.49808 14.8683 5.70705 12.4866 6.62854C10.7671 7.29389 9.5029 8.29576 8.76237 9.49755Z" fill="white"/>
<ellipse cx="11.5061" cy="7.86157" rx="11.5061" ry="7.86157" transform="matrix(-0.970405 -0.241485 0.232541 -0.972587 27.8242 28.2821)" fill="#18191A"/>
<path d="M14.1401 34.4982C8.2334 33.0283 3.94523 28.9665 3.44279 24.786C2.67919 23.054 2.41673 21.1743 2.86651 19.2931C3.59637 16.2408 5.98742 14.0711 8.96277 12.9198C11.9454 11.7657 15.6529 11.5637 19.4007 12.4963C23.1484 13.4289 26.3484 15.3499 28.4751 17.7754C30.5967 20.1951 31.7399 23.2443 31.0101 26.2967C30.5606 28.177 29.4803 29.7219 28.0218 30.9005C25.6898 34.3768 20.048 35.9684 14.1401 34.4982ZM6.24477 18.4925C9.0687 16.328 13.6435 15.5276 18.3933 16.7096C23.1426 17.8915 26.8439 20.7498 28.374 23.9974C28.2587 22.5833 27.5889 21.1009 26.3635 19.7033C24.6652 17.7664 21.9926 16.1169 18.7292 15.3048C15.4659 14.4928 12.3497 14.7018 9.96803 15.6233C8.24867 16.2886 6.9853 17.2908 6.24477 18.4925Z" fill="white"/>
<ellipse cx="11.5061" cy="7.86157" rx="11.5061" ry="7.86157" transform="matrix(-0.970405 -0.241485 0.232541 -0.972587 25.3057 37.2767)" fill="#18191A"/>
<path d="M14.1401 34.4982C8.2334 33.0283 3.94523 28.9665 3.44279 24.786C2.67919 23.054 2.41673 21.1743 2.86651 19.2931C3.59637 16.2408 5.98742 14.0711 8.96277 12.9198C11.9454 11.7657 15.6529 11.5637 19.4007 12.4963C23.1484 13.4289 26.3484 15.3499 28.4751 17.7754C30.5967 20.1951 31.7399 23.2443 31.0101 26.2967C30.5606 28.177 29.4803 29.7219 28.0218 30.9005C25.6898 34.3768 20.048 35.9684 14.1401 34.4982ZM6.24477 18.4925C9.0687 16.328 13.6435 15.5276 18.3933 16.7096C23.1426 17.8915 26.8439 20.7498 28.374 23.9974C28.2587 22.5833 27.5889 21.1009 26.3635 19.7033C24.6652 17.7664 21.9926 16.1169 18.7292 15.3048C15.4659 14.4928 12.3497 14.7018 9.96803 15.6233C8.24867 16.2886 6.9853 17.2908 6.24477 18.4925Z" fill="white"/>
<ellipse cx="11.5061" cy="7.86157" rx="11.5061" ry="7.86157" transform="matrix(-0.970405 -0.241485 0.232541 -0.972587 25.3057 37.2767)" fill="#18191A"/>
<path d="M53.9703 28.4049H53.7822C52.3904 30.8122 50.0959 32.0535 47.3876 32.0535C42.6481 32.0535 38.7738 28.4425 38.7738 22.3488C38.7738 15.9167 42.6105 12.3056 47.5005 12.3056C49.9078 12.3056 52.0143 13.3965 53.3684 15.4277V7.45329C53.3684 6.62576 52.9923 6.24961 52.3528 6.24961H50.5473V4.59455H58.296V28.8562C58.296 29.6462 58.6345 30.0223 59.274 30.0223H61.1171V31.6774H53.9703V28.4049ZM53.4813 22.3865C53.4813 17.1204 51.8638 14.4873 48.7418 14.4873C45.5821 14.4873 43.9647 17.0827 43.9647 22.3112C43.9647 27.4645 45.5821 30.0223 48.7418 30.0223C51.8638 30.0223 53.4813 27.4645 53.4813 22.3865ZM83.1592 22.1984C83.1592 28.4425 78.7959 32.0535 73.3041 32.0535C67.7747 32.0535 63.449 28.4425 63.449 22.1984C63.449 15.9167 67.7747 12.3056 73.3041 12.3056C78.7959 12.3056 83.1592 15.9167 83.1592 22.1984ZM68.6398 22.1232C68.6398 27.6149 70.2197 30.3985 73.3041 30.3985C76.3885 30.3985 77.9684 27.6149 77.9684 22.1232C77.9684 16.7066 76.3885 13.9607 73.3041 13.9607C70.2197 13.9607 68.6398 16.7066 68.6398 22.1232ZM105.219 12.6818V28.8186C105.219 29.6462 105.595 30.0223 106.235 30.0223H108.153V31.6774H100.442V28.2544H100.254C98.4862 30.3985 96.1917 32.0535 93.1825 32.0535C89.7219 32.0535 87.6154 30.1352 87.6154 25.9975V15.5405C87.6154 14.713 87.2769 14.3368 86.5998 14.3368H84.7191V12.6818H92.543V25.847C92.543 28.3296 93.5586 29.4957 95.4394 29.4957C97.5082 29.4957 99.2009 27.9535 100.292 26.1103V15.5781C100.292 14.713 99.9532 14.3368 99.3137 14.3368H97.1697V12.6818H105.219ZM131.214 22.0479C131.214 28.4425 127.34 32.0535 122.45 32.0535C119.704 32.0535 117.297 30.6241 115.943 27.9911L114.89 31.6774H111.655V7.45329C111.655 6.62576 111.354 6.24961 110.639 6.24961H108.721V4.59455H116.582V15.4653C117.974 13.3965 120.08 12.3056 122.601 12.3056C127.34 12.3056 131.214 15.9167 131.214 22.0479ZM116.469 21.9727C116.469 27.1259 118.087 29.9095 121.247 29.9095C124.406 29.9095 125.986 27.2764 125.986 22.0479C125.986 16.8947 124.406 14.3745 121.247 14.3745C118.087 14.3745 116.469 16.8947 116.469 21.9727ZM146.848 27.2388C146.848 30.2104 145.231 32.0535 141.808 32.0535C138.234 32.0535 136.166 30.4737 136.166 26.1103V14.3368H133.382V12.6818H134.811C136.655 12.6818 137.557 12.0423 138.046 9.44689L138.46 7.34045H141.093V12.6818H146.961V14.3368H141.093V27.0131C141.093 29.1948 141.808 29.8718 143.124 29.8718C144.403 29.8718 145.344 29.1572 145.344 27.1259V25.2452H146.848V27.2388Z" fill="white"/>
</svg>
