<svg width="20" height="20" viewBox="0 0 20 20" fill="none" stroke="#6B7280" xmlns="http://www.w3.org/2000/svg">
<g clip-path="url(#clip0_122_25)">
<path d="M12.1135 18.0717C12.1452 18.1506 12.2002 18.2179 12.2712 18.2646C12.3423 18.3114 12.4259 18.3352 12.5109 18.3331C12.5959 18.3309 12.6781 18.3028 12.7467 18.2525C12.8152 18.2022 12.8668 18.1321 12.8943 18.0517L18.311 2.21836C18.3377 2.14452 18.3428 2.06461 18.3257 1.98799C18.3086 1.91136 18.27 1.84119 18.2145 1.78567C18.159 1.73016 18.0888 1.69161 18.0122 1.67452C17.9356 1.65743 17.8557 1.66252 17.7818 1.68919L1.9485 7.10586C1.86808 7.13344 1.79802 7.18496 1.74772 7.2535C1.69743 7.32205 1.66931 7.40434 1.66713 7.48933C1.66495 7.57431 1.68883 7.65794 1.73555 7.72897C1.78226 7.79999 1.84959 7.85503 1.9285 7.88669L8.53683 10.5367C8.74574 10.6203 8.93554 10.7454 9.0948 10.9044C9.25406 11.0634 9.37948 11.2529 9.4635 11.4617L12.1135 18.0717Z" stroke="#6B7280"  stroke-width="1.66667" stroke-linecap="round" stroke-linejoin="round"/>
<path d="M18.2114 1.78918L9.09473 10.905" stroke="#6B7280" stroke-width="1.66667" stroke-linecap="round" stroke-linejoin="round"/>
</g>
<defs>
<clipPath id="clip0_122_25">
<path d="M0 0H20V20H0V0Z" stroke="#6B7280"/>
</clipPath>
</defs>
</svg>
