<svg width="238" height="116" viewBox="0 0 238 116" fill="none" xmlns="http://www.w3.org/2000/svg">
<rect width="230" height="95" transform="translate(0 20.9858) rotate(-5.2351)" fill="#BE54A5"/>
<path d="M19.6021 47.9537L19.3335 45.022L39.027 43.2176C55.7888 41.6818 66.0909 49.6069 67.3172 62.9908C68.5435 76.3747 60.0039 86.2832 44.3894 87.7139L23.4212 89.6351L23.1526 86.7034L26.403 86.4056C27.6776 86.2888 28.494 85.3785 28.3246 83.5303L25.2647 50.1342C25.0954 48.2859 24.1272 47.5391 22.8525 47.6559L19.6021 47.9537ZM36.9636 83.1243C37.1213 84.8451 38.0024 85.3428 39.532 85.2027L43.8658 84.8056C53.4258 83.9296 59.3314 77.5401 58.0759 63.8375C56.6861 48.6691 47.1348 45.4311 38.7858 46.196L33.6234 46.669L36.9636 83.1243ZM107.514 65.7346C108.484 76.3143 101.651 83.11 92.3461 83.9626C82.9774 84.821 75.0875 79.3742 74.1181 68.7945C73.1429 58.1511 79.9116 51.3611 89.2804 50.5027C98.5854 49.6502 106.539 55.0912 107.514 65.7346ZM82.9016 67.8612C83.7542 77.1662 86.8631 81.6372 92.0892 81.1583C97.3153 80.6795 99.5599 75.718 98.7074 66.413C97.8665 57.2354 94.7634 52.8282 89.5373 53.307C84.3112 53.7858 82.0607 58.6836 82.9016 67.8612ZM144.052 46.127L146.557 73.4685C146.685 74.8706 147.381 75.4495 148.464 75.3503L151.715 75.0525L151.972 77.8567L138.906 79.0538L138.375 73.2541L138.056 73.2833C135.394 77.1906 131.763 80.351 126.664 80.8182C120.801 81.3554 116.934 78.432 116.292 71.4214L114.668 53.7036C114.54 52.3015 113.908 51.7167 112.761 51.8218L109.574 52.1138L109.317 49.3096L122.574 48.0949L124.617 70.4015C125.003 74.6079 126.905 76.4259 130.091 76.134C133.597 75.8128 136.225 72.937 137.787 69.6447L136.152 51.7994C136.018 50.3336 135.386 49.7488 134.302 49.8481L130.67 50.1809L130.413 47.3767L144.052 46.127ZM190.188 57.9025C191.181 68.7371 185.177 75.457 176.891 76.2161C172.239 76.6424 167.938 74.5943 165.235 70.3432L164.023 76.7525L158.542 77.2547L154.781 36.2107C154.653 34.8085 154.084 34.2179 152.873 34.3289L149.623 34.6267L149.366 31.8224L162.686 30.602L164.374 49.0208C166.411 45.2994 169.811 43.1242 174.081 42.7329C182.111 41.9971 189.236 47.514 190.188 57.9025ZM165.193 60.0642C165.993 68.7956 169.166 73.2607 174.519 72.7702C179.873 72.2797 182.141 67.5731 181.329 58.7142C180.529 49.9828 177.461 45.9579 172.107 46.4485C166.754 46.939 164.405 51.4602 165.193 60.0642ZM217.483 64.2706C217.944 69.3055 215.49 72.6796 209.69 73.211C203.635 73.7657 199.885 71.4101 199.207 64.0171L197.38 44.0686L192.663 44.5007L192.407 41.6965L194.828 41.4746C197.951 41.1885 199.382 39.9648 199.807 35.4914L200.181 31.8581L204.643 31.4493L205.472 40.4994L215.414 39.5884L215.671 42.3927L205.729 43.3036L207.697 64.7817C208.035 68.4782 209.351 69.5144 211.582 69.3101C213.749 69.1115 215.231 67.7546 214.916 64.313L214.624 61.1264L217.173 60.8928L217.483 64.2706Z" fill="white"/>
</svg>
